<?xml version="1.0" encoding="utf-8"?>
<!-- Generator: Adobe Illustrator 21.1.0, SVG Export Plug-In . SVG Version: 6.00 Build 0)  -->
<svg version="1.1" id="Layer_1" xmlns="http://www.w3.org/2000/svg" xmlns:xlink="http://www.w3.org/1999/xlink" x="0px" y="0px"
	 viewBox="0 0 100 100" style="enable-background:new 0 0 100 100;" xml:space="preserve">
<style type="text/css">
	.st0{fill:#FFFFFF;}
</style>
<path class="st0" d="M52.4,4.8C26.1,4.8,4.8,26.1,4.8,52.4c0,26.3,21.3,47.6,47.6,47.6c26.3,0,47.6-21.3,47.6-47.6
	C100,26.1,78.7,4.8,52.4,4.8L52.4,4.8z M59.8,33.8V71c0,4.1-3.3,7.4-7.4,7.4c-4.1,0-7.4-3.3-7.4-7.4V33.8c0-4.1,3.3-7.4,7.4-7.4
	C56.5,26.4,59.8,29.7,59.8,33.8L59.8,33.8z M59.8,33.8"/>
</svg>
