<?xml version="1.0" encoding="utf-8"?>
<!-- Generator: Adobe Illustrator 21.1.0, SVG Export Plug-In . SVG Version: 6.00 Build 0)  -->
<svg version="1.1" id="Layer_1" xmlns="http://www.w3.org/2000/svg" xmlns:xlink="http://www.w3.org/1999/xlink" x="0px" y="0px"
	 viewBox="0 0 595.3 841.9" style="enable-background:new 0 0 595.3 841.9;" xml:space="preserve">
<style type="text/css">
	.st0{fill:#FFFFFF;}
</style>
<g>
	<path class="st0" d="M297.6,301.9c-66.3,0-120,53.7-120,120c0,66.3,53.7,120,120,120c66.3,0,120-53.7,120-120
		C417.6,355.6,363.9,301.9,297.6,301.9L297.6,301.9z M249.9,465.5c-4.6,0-8.3-3.7-8.3-8.3c0-4.6,3.7-8.3,8.3-8.3
		c4.6,0,8.3,3.7,8.3,8.3C258.2,461.8,254.5,465.5,249.9,465.5L249.9,465.5z M249.9,430.2c-4.6,0-8.3-3.7-8.3-8.3
		c0-4.6,3.7-8.3,8.3-8.3c4.6,0,8.3,3.7,8.3,8.3C258.2,426.5,254.5,430.2,249.9,430.2L249.9,430.2z M249.9,394.9
		c-4.6,0-8.3-3.7-8.3-8.3s3.7-8.3,8.3-8.3c4.6,0,8.3,3.7,8.3,8.3S254.5,394.9,249.9,394.9L249.9,394.9z M353.7,464.9H276
		c-4.6,0-8.3-3.7-8.3-8.3c0-4.6,3.7-8.3,8.3-8.3h77.7c4.6,0,8.3,3.7,8.3,8.3C362,461.2,358.3,464.9,353.7,464.9L353.7,464.9z
		 M353.7,429.9H276c-4.6,0-8.3-3.7-8.3-8.3c0-4.6,3.7-8.3,8.3-8.3h77.7c4.6,0,8.3,3.7,8.3,8.3S358.3,429.9,353.7,429.9L353.7,429.9z
		 M353.7,394.9H276c-4.6,0-8.3-3.7-8.3-8.3c0-4.6,3.7-8.3,8.3-8.3h77.7c4.6,0,8.3,3.7,8.3,8.3C362,391.2,358.3,394.9,353.7,394.9
		L353.7,394.9z M353.7,394.9"/>
</g>
</svg>
