<?xml version="1.0" encoding="utf-8"?>
<!-- Generator: Adobe Illustrator 21.1.0, SVG Export Plug-In . SVG Version: 6.00 Build 0)  -->
<svg version="1.1" id="Layer_1" xmlns="http://www.w3.org/2000/svg" xmlns:xlink="http://www.w3.org/1999/xlink" x="0px" y="0px"
	 viewBox="0 0 100 100" style="enable-background:new 0 0 100 100;" xml:space="preserve">
<style type="text/css">
	.st0{fill:#FFFFFF;}
</style>
<g>
	<path class="st0" d="M50,0C22.4,0,0,22.4,0,50s22.4,50,50,50s50-22.4,50-50S77.6,0,50,0L50,0z M30.1,68.2c-1.9,0-3.5-1.5-3.5-3.5
		c0-1.9,1.5-3.5,3.5-3.5s3.5,1.5,3.5,3.5C33.6,66.6,32,68.2,30.1,68.2L30.1,68.2z M30.1,53.5c-1.9,0-3.5-1.5-3.5-3.5
		c0-1.9,1.5-3.5,3.5-3.5s3.5,1.5,3.5,3.5C33.6,51.9,32,53.5,30.1,53.5L30.1,53.5z M30.1,38.7c-1.9,0-3.5-1.5-3.5-3.5
		s1.5-3.5,3.5-3.5s3.5,1.5,3.5,3.5S32,38.7,30.1,38.7L30.1,38.7z M73.4,67.9H41c-1.9,0-3.5-1.5-3.5-3.5c0-1.9,1.5-3.5,3.5-3.5h32.4
		c1.9,0,3.5,1.5,3.5,3.5C76.8,66.4,75.3,67.9,73.4,67.9L73.4,67.9z M73.4,53.3H41c-1.9,0-3.5-1.5-3.5-3.5c0-1.9,1.5-3.5,3.5-3.5
		h32.4c1.9,0,3.5,1.5,3.5,3.5S75.3,53.3,73.4,53.3L73.4,53.3z M73.4,38.7H41c-1.9,0-3.5-1.5-3.5-3.5c0-1.9,1.5-3.5,3.5-3.5h32.4
		c1.9,0,3.5,1.5,3.5,3.5C76.8,37.2,75.3,38.7,73.4,38.7L73.4,38.7z"/>
</g>
</svg>
